<svg width="569" height="569" viewBox="0 0 569 569" fill="none" xmlns="http://www.w3.org/2000/svg">
<path d="M569 435.171H0V435.455H569V435.171Z" fill="#FDEEEE"/>
<path d="M511.987 453.481H487.315V453.766H511.987V453.481Z" fill="#FDEEEE"/>
<path d="M392.235 447.587H353.418V447.871H392.235V447.587Z" fill="#FDEEEE"/>
<path d="M501.994 442.921H451.319V443.205H501.994V442.921Z" fill="#FDEEEE"/>
<path d="M196.898 448.656H184.22V448.941H196.898V448.656Z" fill="#FDEEEE"/>
<path d="M174.08 448.656H130.392V448.941H174.08V448.656Z" fill="#FDEEEE"/>
<path d="M106.984 443.854H75.4614V444.139H106.984V443.854Z" fill="#FDEEEE"/>
<path d="M269.707 384.416H49.9705C48.2491 384.413 46.5992 383.727 45.3831 382.509C44.1669 381.291 43.4839 379.64 43.4839 377.918V69.0309C43.4989 67.3194 44.1885 65.6829 45.4031 64.4769C46.6176 63.2709 48.2589 62.5928 49.9705 62.5898H269.707C271.43 62.5898 273.083 63.2745 274.302 64.4931C275.52 65.7117 276.205 67.3645 276.205 69.0878V377.918C276.205 379.642 275.52 381.294 274.302 382.513C273.083 383.732 271.43 384.416 269.707 384.416V384.416ZM49.9705 62.8174C48.3245 62.8205 46.747 63.4764 45.5842 64.6413C44.4215 65.8063 43.7684 67.385 43.7684 69.0309V377.918C43.7684 379.564 44.4215 381.143 45.5842 382.308C46.747 383.473 48.3245 384.129 49.9705 384.132H269.707C271.354 384.129 272.933 383.473 274.097 382.309C275.262 381.144 275.917 379.565 275.92 377.918V69.0309C275.917 67.3839 275.262 65.8053 274.097 64.6407C272.933 63.4761 271.354 62.8205 269.707 62.8174H49.9705Z" fill="#FDEEEE"/>
<path d="M515.867 384.416H296.119C294.397 384.413 292.746 383.728 291.528 382.51C290.31 381.292 289.624 379.641 289.621 377.918V69.0309C289.639 67.3184 290.331 65.6819 291.548 64.4762C292.764 63.2705 294.406 62.5927 296.119 62.5898H515.867C517.576 62.5958 519.215 63.2752 520.427 64.4809C521.639 65.6866 522.327 67.3214 522.342 69.0309V377.918C522.342 379.638 521.661 381.287 520.447 382.505C519.233 383.723 517.586 384.41 515.867 384.416V384.416ZM296.119 62.8174C294.472 62.8205 292.893 63.4761 291.729 64.6407C290.564 65.8053 289.909 67.3839 289.906 69.0309V377.918C289.909 379.565 290.564 381.144 291.729 382.309C292.893 383.473 294.472 384.129 296.119 384.132H515.867C517.514 384.129 519.093 383.473 520.257 382.309C521.422 381.144 522.077 379.565 522.08 377.918V69.0309C522.077 67.3839 521.422 65.8053 520.257 64.6407C519.093 63.4761 517.514 62.8205 515.867 62.8174H296.119Z" fill="#FDEEEE"/>
<path d="M245.888 228.601L246.401 213.648L237.228 210.644C236.834 205.576 236.012 200.551 234.77 195.622L242.554 189.932L237.274 175.889L227.646 176.663C225.364 172.138 222.699 167.817 219.68 163.747L224.665 155.428L214.423 144.492L205.819 148.896C201.951 145.589 197.817 142.605 193.461 139.974L194.849 130.415L181.193 124.224L174.934 131.553C170.106 130.008 165.157 128.866 160.14 128.139L157.864 118.773L142.865 118.261L139.906 127.444C134.844 127.842 129.823 128.661 124.896 129.891L119.115 122.153L105.072 127.399L105.846 137.026C101.324 139.344 97.0036 142.035 92.9299 145.072L84.5542 139.974L73.5725 150.216L77.9765 158.865C74.6688 162.714 71.699 166.841 69.1001 171.201L59.5523 169.767L53.3161 183.423L60.6903 189.67C59.1348 194.496 57.9926 199.445 57.2763 204.464L47.7968 206.843L47.2847 221.796L56.5025 224.8C56.8838 229.865 57.7024 234.887 58.9492 239.811L51.1652 245.501L56.4569 259.555L66.0844 258.781C68.3613 263.309 71.0266 267.63 74.0504 271.697L69.0546 280.016L79.2966 290.952L87.8999 286.548C91.7584 289.854 95.8845 292.835 100.236 295.459L98.8019 305.007L112.458 311.209L118.751 303.88C123.579 305.438 128.527 306.599 133.545 307.351L135.821 316.717L150.82 317.229L153.779 308.045C158.844 307.642 163.869 306.824 168.8 305.598L174.49 313.337L188.533 308.091L187.805 298.463C192.319 296.131 196.638 293.44 200.721 290.417L208.994 295.402L219.976 285.16L215.572 276.511C218.881 272.663 221.851 268.535 224.449 264.175L233.996 265.609L240.233 251.953L232.858 245.694C234.44 240.872 235.601 235.922 236.329 230.9L245.888 228.601ZM144.845 277.046C133.11 276.649 121.756 272.781 112.22 265.931C102.683 259.081 95.3927 249.556 91.2702 238.562C87.1477 227.568 86.3785 215.598 89.06 204.166C91.7414 192.735 97.753 182.355 106.334 174.341C114.916 166.326 125.681 161.037 137.269 159.142C148.857 157.247 160.747 158.831 171.434 163.694C182.121 168.557 191.126 176.481 197.31 186.462C203.493 196.444 206.577 208.036 206.172 219.77C205.632 235.497 198.868 250.365 187.368 261.106C175.868 271.847 160.572 277.58 144.845 277.046V277.046Z" fill="#FDEEEE"/>
<path d="M501.859 179.144L505.626 175.628L504.135 172.657C505.273 171.326 506.296 169.903 507.197 168.401L510.497 168.891L512.625 164.179L510.098 162.028C510.643 160.363 511.042 158.653 511.293 156.919L514.537 156.111L514.696 150.944L511.532 149.92C511.393 148.17 511.112 146.435 510.69 144.731L513.364 142.739L511.544 137.903L508.232 138.165C507.433 136.605 506.509 135.113 505.467 133.704L507.185 130.859L503.646 127.08L500.687 128.594C499.354 127.459 497.931 126.436 496.431 125.533L496.909 122.233L492.209 120.082L490.047 122.62C488.378 122.1 486.669 121.719 484.937 121.482L484.129 118.25L478.963 118.056L477.927 121.243C476.184 121.376 474.456 121.658 472.761 122.085L470.781 119.41L465.933 121.22L466.206 124.543C464.641 125.334 463.149 126.259 461.745 127.308L458.877 125.59L455.099 129.106L456.567 132.008C455.421 133.335 454.393 134.759 453.494 136.264L450.205 135.775L448.066 140.486L450.604 142.648C450.078 144.312 449.697 146.017 449.466 147.747L446.211 148.555L446.052 153.721L449.227 154.745C449.356 156.495 449.634 158.231 450.058 159.935L447.372 161.915L449.193 166.751L452.516 166.501C453.314 168.061 454.239 169.553 455.281 170.962L453.563 173.807L457.102 177.585L460.061 176.071C461.391 177.21 462.814 178.234 464.317 179.133L463.827 182.421L468.539 184.572L470.701 182.046C472.371 182.56 474.08 182.941 475.81 183.184L476.618 186.416L481.785 186.609L482.821 183.423C484.564 183.29 486.292 183.009 487.987 182.581L489.967 185.255L494.815 183.446L494.553 180.123C496.113 179.331 497.602 178.406 499.003 177.357L501.859 179.144ZM474.98 157.374C473.986 156.309 473.33 154.974 473.096 153.536C472.861 152.098 473.058 150.624 473.662 149.298C474.266 147.973 475.249 146.856 476.488 146.09C477.727 145.323 479.165 144.941 480.62 144.992C482.076 145.043 483.484 145.525 484.666 146.376C485.848 147.227 486.75 148.41 487.26 149.774C487.77 151.139 487.863 152.624 487.529 154.041C487.194 155.459 486.447 156.745 485.381 157.738C484.674 158.405 483.841 158.925 482.931 159.268C482.022 159.611 481.053 159.77 480.082 159.736C479.11 159.703 478.155 159.476 477.271 159.071C476.388 158.665 475.593 158.089 474.934 157.374H474.98Z" fill="#FDEEEE"/>
<path d="M364.16 332.682L352.393 324.546C351.24 320.309 349.653 316.202 347.659 312.29L350.675 300.454L333.605 282.178L321.587 284.374C317.817 282.116 313.824 280.251 309.672 278.81V278.81L302.366 266.508L277.33 265.654L269.205 277.421C264.973 278.574 260.87 280.156 256.96 282.144L245.125 279.128L226.849 296.198L229.045 308.193C226.788 311.97 224.927 315.971 223.492 320.13L211.19 327.436L210.336 352.472L222.115 360.598C223.249 364.858 224.832 368.985 226.837 372.911V372.911L223.788 384.644L240.858 402.92L252.795 400.735C256.594 402.996 260.613 404.865 264.79 406.311V406.311L272.084 418.59L297.12 419.455L305.234 407.688C309.504 406.535 313.645 404.949 317.593 402.954L329.36 405.958L347.647 388.888L345.451 376.894C347.715 373.116 349.576 369.111 351.005 364.945V364.945L363.306 357.639L364.16 332.682ZM286.264 370.68C280.706 370.49 275.329 368.657 270.813 365.411C266.297 362.165 262.845 357.654 260.893 352.446C258.941 347.239 258.577 341.57 259.847 336.155C261.117 330.741 263.964 325.825 268.028 322.029C272.092 318.232 277.19 315.726 282.678 314.827C288.166 313.928 293.797 314.676 298.86 316.977C303.923 319.278 308.19 323.029 311.121 327.755C314.052 332.481 315.516 337.97 315.328 343.528C315.067 350.982 311.859 358.028 306.407 363.119C300.956 368.21 293.707 370.929 286.252 370.68H286.264Z" fill="#FDEEEE"/>
<path d="M390.959 261.74H390.88L371.169 261.068C370.77 261.061 370.379 260.953 370.033 260.754C369.687 260.555 369.397 260.272 369.189 259.93L363.875 250.997C361.01 249.949 358.239 248.663 355.59 247.151L347.089 248.619C346.693 248.691 346.285 248.662 345.903 248.535C345.521 248.408 345.178 248.186 344.904 247.89L331.442 233.483C331.159 233.185 330.959 232.819 330.859 232.42C330.759 232.021 330.764 231.604 330.873 231.207L333.024 222.775C331.691 220.042 330.602 217.198 329.769 214.274L321.2 208.356C320.868 208.128 320.598 207.82 320.417 207.459C320.236 207.099 320.149 206.699 320.164 206.296L320.836 186.586C320.849 186.188 320.96 185.8 321.158 185.455C321.357 185.109 321.637 184.818 321.974 184.606L330.93 179.292C331.963 176.434 333.246 173.673 334.765 171.041L333.194 162.472C333.121 162.074 333.149 161.664 333.277 161.28C333.404 160.896 333.626 160.551 333.923 160.276L348.33 146.825C348.628 146.541 348.993 146.339 349.392 146.237C349.79 146.135 350.208 146.138 350.606 146.244L359.073 148.406C361.798 147.073 364.635 145.98 367.551 145.14L373.468 136.571C373.688 136.231 373.995 135.955 374.357 135.773C374.719 135.591 375.124 135.509 375.528 135.536L395.227 136.218C395.627 136.227 396.019 136.335 396.367 136.534C396.715 136.733 397.008 137.016 397.218 137.356L402.533 146.301C405.377 147.345 408.126 148.632 410.749 150.148L419.352 148.566C419.748 148.492 420.157 148.52 420.539 148.648C420.921 148.775 421.265 148.998 421.537 149.294L435 163.701C435.281 164.001 435.48 164.367 435.58 164.765C435.679 165.164 435.675 165.581 435.569 165.977L433.407 174.432C434.74 177.159 435.836 179.996 436.684 182.911L445.242 188.828C445.574 189.056 445.843 189.365 446.024 189.725C446.206 190.085 446.293 190.485 446.277 190.888L445.606 210.587C445.593 210.986 445.482 211.376 445.284 211.723C445.085 212.07 444.805 212.364 444.468 212.578L435.512 217.893C434.472 220.744 433.189 223.5 431.677 226.132L433.247 234.712C433.321 235.108 433.293 235.517 433.165 235.899C433.038 236.281 432.816 236.625 432.519 236.897L418.021 250.36C417.722 250.642 417.356 250.843 416.958 250.943C416.559 251.042 416.141 251.038 415.745 250.929L407.324 248.778C404.58 250.105 401.728 251.198 398.8 252.044L392.939 260.602C392.728 260.94 392.437 261.22 392.092 261.419C391.746 261.617 391.357 261.727 390.959 261.74V261.74ZM372.649 256.312L389.719 256.892L395.409 248.71C395.724 248.232 396.208 247.891 396.763 247.754C399.965 246.878 403.072 245.685 406.038 244.192V244.192C406.555 243.943 407.142 243.882 407.699 244.021L415.665 246.058L428.183 234.394L426.749 226.166C426.639 225.591 426.744 224.995 427.045 224.493C428.735 221.675 430.128 218.689 431.199 215.583C431.38 215.019 431.76 214.542 432.269 214.24L440.838 209.164L441.418 192.094L433.225 186.404C432.793 186.109 432.469 185.682 432.303 185.187C432.303 185.13 432.303 185.061 432.303 184.993C431.426 181.848 430.237 178.798 428.752 175.889C428.489 175.368 428.424 174.77 428.57 174.205L430.619 166.148L418.954 153.63L410.772 155.132C410.2 155.236 409.611 155.131 409.11 154.836C406.287 153.142 403.297 151.743 400.188 150.66C400.01 150.602 399.838 150.526 399.676 150.432C399.348 150.227 399.075 149.946 398.88 149.613L393.747 141.021L376.677 140.429L370.987 148.634C370.648 149.115 370.147 149.458 369.576 149.601C366.407 150.467 363.334 151.653 360.404 153.14C359.887 153.404 359.292 153.469 358.731 153.323L350.674 151.274L338.156 162.939L339.658 171.098C339.747 171.613 339.672 172.142 339.442 172.612L339.328 172.805C337.636 175.634 336.244 178.632 335.174 181.75C334.986 182.284 334.615 182.736 334.128 183.024L325.558 188.111L324.978 205.181L333.183 210.871C333.651 211.191 333.99 211.667 334.139 212.214C334.992 215.41 336.178 218.507 337.678 221.455C337.759 221.622 337.824 221.798 337.872 221.978C337.957 222.353 337.957 222.742 337.872 223.116L335.823 231.082L347.488 243.6L355.613 242.109C356.181 242.005 356.767 242.111 357.263 242.405C360.108 244.096 363.116 245.495 366.242 246.582C366.806 246.749 367.283 247.128 367.573 247.64L372.649 256.312ZM383.198 234.724C382.777 234.724 382.356 234.724 381.935 234.724C372.475 234.557 363.463 230.661 356.862 223.883C350.261 217.105 346.603 207.993 346.687 198.532C346.77 189.071 350.587 180.026 357.307 173.365C364.026 166.704 373.105 162.967 382.566 162.967C392.028 162.967 401.107 166.704 407.826 173.365C414.546 180.026 418.363 189.071 418.446 198.532C418.53 207.993 414.872 217.105 408.271 223.883C401.67 230.661 392.658 234.557 383.198 234.724ZM383.198 167.479C374.931 167.622 367.055 171.024 361.285 176.946C355.514 182.868 352.317 190.829 352.388 199.097C352.459 207.365 355.794 215.27 361.665 221.091C367.537 226.912 375.47 230.178 383.739 230.178C392.007 230.178 399.94 226.912 405.812 221.091C411.684 215.27 415.018 207.365 415.089 199.097C415.161 190.829 411.963 182.868 406.193 176.946C400.422 171.024 392.546 167.622 384.279 167.479H383.198Z" fill="#FDEEEE"/>
<path d="M436.354 119.854L428.184 117.669L425.999 109.498L429.196 106.312L432.565 113.288L439.552 116.668L436.354 119.854Z" fill="#FDEEEE"/>
<path d="M436.856 114.392C437.209 114.038 437.49 113.619 437.681 113.157C437.872 112.695 437.971 112.2 437.971 111.7C437.971 111.2 437.872 110.705 437.681 110.244C437.49 109.782 437.209 109.362 436.856 109.009C436.502 108.655 436.083 108.375 435.621 108.184C435.159 107.993 434.664 107.894 434.165 107.894C433.665 107.894 433.17 107.993 432.708 108.184C432.246 108.375 431.827 108.655 431.473 109.009L435.536 102.909L440.975 105.663L442.17 111.353L436.856 114.392Z" fill="#FDEEEE"/>
<path d="M428.548 106.972L434.534 100.986L442.682 103.159L444.879 111.319L438.893 117.305L430.733 115.108L428.548 106.972ZM439.416 111.865C439.949 111.332 440.312 110.653 440.459 109.913C440.605 109.174 440.53 108.407 440.241 107.711C439.952 107.015 439.464 106.419 438.837 106.001C438.21 105.582 437.473 105.358 436.719 105.358C435.965 105.358 435.228 105.582 434.602 106.001C433.975 106.419 433.486 107.015 433.197 107.711C432.909 108.407 432.833 109.174 432.98 109.913C433.127 110.653 433.489 111.332 434.022 111.865C434.743 112.572 435.714 112.967 436.724 112.962C437.734 112.958 438.701 112.556 439.416 111.842V111.865Z" fill="#FCDEDE"/>
<path d="M102.672 337.656L107.053 336.472L108.225 332.091L106.518 330.384L104.709 334.128L100.953 335.937L102.672 337.656Z" fill="#FDEEEE"/>
<path d="M102.419 334.72C102.077 334.329 101.896 333.822 101.913 333.303C101.93 332.783 102.144 332.29 102.512 331.922C102.879 331.555 103.373 331.341 103.892 331.323C104.412 331.306 104.919 331.487 105.31 331.83L103.136 328.563L100.143 330.02L99.5059 333.093L102.419 334.72Z" fill="#FDEEEE"/>
<path d="M106.859 330.726L103.65 327.517L99.2684 328.655L98.1304 333.036L101.283 336.279L105.664 335.141L106.859 330.726ZM101.032 333.355C100.821 333.17 100.65 332.944 100.53 332.69C100.41 332.437 100.344 332.162 100.334 331.881C100.325 331.601 100.373 331.322 100.476 331.061C100.579 330.8 100.735 330.563 100.933 330.365C101.131 330.167 101.368 330.011 101.629 329.908C101.89 329.805 102.169 329.757 102.449 329.766C102.73 329.775 103.005 329.842 103.259 329.962C103.512 330.082 103.738 330.253 103.923 330.464C104.265 330.855 104.446 331.362 104.429 331.881C104.412 332.401 104.198 332.894 103.83 333.262C103.463 333.629 102.969 333.843 102.449 333.861C101.93 333.878 101.423 333.697 101.032 333.355V333.355Z" fill="#FCDEDE"/>
<path d="M86.8971 97.4807L90.5387 101.122C90.9941 101.57 91.6071 101.821 92.2457 101.821C92.8843 101.821 93.4973 101.57 93.9527 101.122V101.122C94.3976 100.666 94.6466 100.053 94.6466 99.4153C94.6466 98.7777 94.3976 98.1652 93.9527 97.7083L90.3225 94.0781C89.8656 93.6332 89.2532 93.3843 88.6155 93.3843C87.9778 93.3843 87.3653 93.6332 86.9085 94.0781V94.0781C86.4628 94.5316 86.2121 95.1413 86.21 95.7771C86.2078 96.4129 86.4545 97.0243 86.8971 97.4807Z" fill="#FCDEDE"/>
<path d="M84.3361 88.4337C85.2864 88.1694 86.2931 88.1884 87.2327 88.4883C88.1723 88.7883 89.0039 89.356 89.6253 90.122C90.2468 90.8879 90.631 91.8186 90.7309 92.7998C90.8308 93.7811 90.6419 94.7701 90.1876 95.6455C89.7332 96.521 89.0331 97.2446 88.1732 97.7277C87.3133 98.2108 86.331 98.4323 85.347 98.3649C84.363 98.2976 83.42 97.9443 82.634 97.3486C81.8479 96.7528 81.253 95.9405 80.9221 95.0113C80.7121 94.3553 80.6339 93.6643 80.692 92.9779C80.75 92.2916 80.9433 91.6235 81.2606 91.0122C81.5779 90.4008 82.013 89.8583 82.5408 89.4157C83.0687 88.9732 83.6788 88.6395 84.3361 88.4337V88.4337Z" fill="#FDEEEE"/>
<path d="M80.3777 94.4024L80.9048 95.8696L91.7218 91.9838L91.1947 90.5165L80.3777 94.4024Z" fill="#FCDEDE"/>
<path d="M284.5 486.563C406.36 486.563 505.147 480.796 505.147 473.681C505.147 466.566 406.36 460.799 284.5 460.799C162.64 460.799 63.8535 466.566 63.8535 473.681C63.8535 480.796 162.64 486.563 284.5 486.563Z" fill="#FCDEDE"/>
<path d="M253.148 346.908C254.73 321.417 251.828 275.066 299.75 281.211C351.107 287.778 336.416 347.841 336.416 347.841L253.148 346.908Z" fill="#8F3535"/>
<path d="M286.221 331.591C297.772 331.591 307.137 322.226 307.137 310.674C307.137 299.122 297.772 289.758 286.221 289.758C274.669 289.758 265.304 299.122 265.304 310.674C265.304 322.226 274.669 331.591 286.221 331.591Z" fill="white"/>
<path d="M288.973 289.792C279.062 288.107 268.489 295.402 267.431 302.799L306.704 306.418C305.315 297.985 296.826 291.135 288.973 289.792Z" fill="#8F3535"/>
<path d="M302.23 310.151C301.946 315.625 298.964 319.915 295.573 319.733C292.182 319.551 289.655 314.987 289.883 309.491C290.11 303.994 293.149 299.727 296.54 299.909C299.931 300.091 302.503 304.689 302.23 310.151Z" fill="#8F3535"/>
<path d="M286.22 332.729C281.859 332.729 277.595 331.436 273.968 329.012C270.341 326.589 267.514 323.144 265.845 319.114C264.176 315.085 263.739 310.65 264.59 306.372C265.441 302.094 267.541 298.164 270.626 295.08C273.71 291.995 277.64 289.895 281.918 289.044C286.196 288.193 290.63 288.63 294.66 290.299C298.69 291.968 302.135 294.795 304.558 298.422C306.981 302.049 308.275 306.313 308.275 310.675C308.269 316.522 305.943 322.128 301.809 326.263C297.674 330.397 292.068 332.723 286.22 332.729V332.729ZM286.22 290.908C282.308 290.908 278.484 292.068 275.231 294.242C271.978 296.415 269.443 299.505 267.946 303.12C266.45 306.734 266.059 310.712 266.823 314.549C267.587 318.386 269.472 321.91 272.239 324.675C275.006 327.441 278.531 329.324 282.369 330.086C286.206 330.848 290.183 330.454 293.797 328.956C297.411 327.457 300.499 324.92 302.671 321.666C304.843 318.412 306.001 314.587 305.999 310.675C305.993 305.432 303.907 300.406 300.199 296.7C296.49 292.994 291.463 290.911 286.22 290.908V290.908Z" fill="#EE5858"/>
<path opacity="0.3" d="M330.58 346.271H330.443C330.37 346.255 330.301 346.225 330.24 346.181C330.179 346.138 330.127 346.083 330.088 346.019C330.048 345.956 330.022 345.885 330.011 345.811C330 345.737 330.003 345.661 330.022 345.588C330.022 345.441 333.686 330.009 329.919 314.407C329.883 314.256 329.908 314.097 329.99 313.965C330.071 313.833 330.201 313.738 330.352 313.702C330.503 313.665 330.662 313.691 330.794 313.772C330.927 313.853 331.021 313.983 331.057 314.134C334.893 330.066 331.194 345.702 331.16 345.85C331.126 345.976 331.05 346.087 330.944 346.164C330.839 346.24 330.71 346.278 330.58 346.271V346.271Z" fill="white"/>
<path opacity="0.3" d="M327.404 305.849C327.295 305.848 327.188 305.816 327.095 305.758C327.003 305.7 326.929 305.617 326.88 305.519C325.466 302.393 323.653 299.463 321.486 296.802C321.392 296.686 321.347 296.537 321.362 296.387C321.377 296.238 321.45 296.101 321.566 296.005C321.624 295.957 321.691 295.921 321.763 295.898C321.835 295.876 321.911 295.868 321.987 295.876C322.062 295.883 322.135 295.906 322.201 295.941C322.268 295.977 322.326 296.026 322.374 296.085C324.594 298.823 326.456 301.833 327.916 305.041C327.948 305.108 327.967 305.181 327.971 305.256C327.974 305.33 327.963 305.404 327.938 305.474C327.912 305.544 327.873 305.609 327.822 305.663C327.772 305.718 327.711 305.762 327.643 305.792C327.568 305.827 327.486 305.846 327.404 305.849V305.849Z" fill="white"/>
<path d="M146.496 466.489H146.075C144.566 466.447 143.135 465.807 142.098 464.71C141.061 463.613 140.502 462.149 140.544 460.64C140.586 459.131 141.226 457.7 142.323 456.663C143.42 455.626 144.884 455.067 146.394 455.109H146.496C149.785 455.109 157.694 451.115 174.24 425.032C174.68 424.339 175.263 423.749 175.952 423.303C176.64 422.857 177.417 422.565 178.229 422.448C179.04 422.33 179.868 422.389 180.655 422.621C181.441 422.853 182.169 423.252 182.787 423.791C195.781 434.962 209.953 444.685 225.052 452.788C225.751 453.105 226.378 453.561 226.896 454.128C227.414 454.694 227.812 455.36 228.066 456.084C228.32 456.809 228.425 457.577 228.374 458.343C228.323 459.109 228.118 459.857 227.771 460.541C227.424 461.226 226.941 461.833 226.353 462.326C225.765 462.82 225.083 463.189 224.349 463.412C223.614 463.635 222.842 463.707 222.079 463.623C221.316 463.54 220.578 463.303 219.908 462.927C205.875 455.47 192.611 446.65 180.306 436.594C166.434 457.476 156.146 466.489 146.496 466.489Z" fill="#8F3535"/>
<path d="M181.705 422.767H181.216C180.321 422.637 179.515 422.158 178.973 421.435C178.431 420.712 178.198 419.804 178.325 418.909C179.133 413.219 178.132 392.018 170.951 375.517C170.632 374.788 170.579 373.97 170.799 373.206C171.019 372.441 171.5 371.777 172.157 371.329C187.748 360.712 220.955 359.437 222.366 359.392C222.814 359.377 223.261 359.45 223.681 359.608C224.101 359.766 224.486 360.005 224.813 360.311C225.141 360.617 225.405 360.985 225.59 361.394C225.776 361.802 225.879 362.243 225.894 362.692C225.909 363.14 225.835 363.587 225.677 364.007C225.519 364.427 225.281 364.812 224.974 365.139C224.668 365.467 224.3 365.731 223.891 365.916C223.483 366.101 223.042 366.205 222.593 366.22C222.286 366.22 193.256 367.358 178.348 375.551C184.698 391.984 186.143 412.457 185.085 419.865C184.962 420.673 184.554 421.411 183.933 421.943C183.313 422.476 182.523 422.768 181.705 422.767Z" fill="#8F3535"/>
<path d="M187.441 418.352C185.165 412.992 174.923 413.595 168.925 418.192C165.716 420.639 161.369 428.025 160.959 430.71C160.823 431.349 160.843 432.01 161.019 432.639C161.195 433.267 161.52 433.844 161.968 434.318C162.416 434.793 162.973 435.152 163.59 435.364C164.207 435.576 164.866 435.635 165.511 435.536C169.438 435.194 174.82 429.493 174.82 429.493C171.236 433.009 175.867 435.49 182.786 430.403C186.564 427.569 189.978 424.349 187.441 418.352Z" fill="#EE5858"/>
<path d="M383.176 348.411C383.124 348.423 383.07 348.423 383.017 348.411C382.944 348.391 382.877 348.357 382.818 348.311C382.758 348.264 382.709 348.206 382.673 348.14C382.637 348.075 382.615 348.002 382.607 347.927C382.6 347.852 382.608 347.777 382.63 347.705C384.144 342.425 385.794 339.204 387.967 337.463C387.627 336.239 387.691 334.938 388.149 333.753C388.68 332.37 389.616 331.18 390.835 330.339C390.504 329.981 390.268 329.545 390.151 329.071C390.034 328.598 390.038 328.102 390.164 327.631C390.576 326.205 391.428 324.947 392.599 324.035C392.177 323.562 391.946 322.95 391.95 322.316C391.95 318.902 398.221 313.759 405.333 312.78C405.484 312.759 405.637 312.799 405.759 312.89C405.881 312.982 405.961 313.118 405.982 313.269C406.003 313.42 405.963 313.573 405.872 313.695C405.78 313.817 405.643 313.897 405.493 313.918C398.733 314.84 393.066 319.733 393.088 322.316C393.086 322.702 393.233 323.073 393.498 323.352C395.029 322.314 396.751 321.591 398.564 321.226C400.377 320.86 402.245 320.86 404.059 321.224C407.552 321.895 408.975 322.635 408.816 323.693C408.497 325.685 401.066 326.106 396.081 325.514C395.188 325.433 394.319 325.182 393.521 324.774C392.448 325.538 391.65 326.628 391.245 327.881C391.147 328.213 391.148 328.566 391.247 328.897C391.346 329.228 391.539 329.524 391.802 329.748C393.919 328.61 396.889 328.2 400.815 329.065C405.971 330.203 406.164 330.829 406.289 331.204C406.329 331.337 406.332 331.478 406.298 331.612C406.264 331.747 406.194 331.869 406.096 331.967C405.015 333.105 397.105 332.57 393.134 331.591C392.654 331.482 392.191 331.31 391.757 331.079C390.581 331.793 389.677 332.878 389.185 334.163C388.856 334.994 388.766 335.901 388.923 336.78C389.126 336.659 389.335 336.549 389.549 336.45C391.905 335.312 394.75 335.517 398.266 337.019C400.542 338.009 401.68 338.897 401.794 339.796C401.799 340.027 401.741 340.254 401.627 340.455C401.513 340.655 401.346 340.821 401.145 340.934C399.404 342.072 393.327 341.913 390.164 340.229C389.436 339.833 388.83 339.247 388.411 338.533C386.556 340.24 385.054 343.278 383.688 348.047C383.647 348.15 383.577 348.239 383.486 348.304C383.395 348.369 383.288 348.406 383.176 348.411V348.411ZM389.344 337.793C389.661 338.382 390.144 338.865 390.733 339.182C393.305 340.547 398.357 340.854 400.246 340.092C400.633 339.933 400.69 339.807 400.69 339.807C400.69 339.807 400.633 339.17 397.845 337.975C394.659 336.61 392.155 336.416 390.073 337.384C389.821 337.505 389.578 337.641 389.344 337.793V337.793ZM393.145 330.317L393.43 330.396C397.136 331.25 400.949 331.538 404.741 331.25C403.396 330.751 402.01 330.37 400.599 330.112C398.148 329.448 395.556 329.519 393.145 330.317V330.317ZM394.579 323.921C395.104 324.109 395.651 324.232 396.206 324.285C401.896 324.957 406.892 324.171 407.586 323.454C407.393 323.284 406.631 322.794 403.808 322.259C400.633 321.626 397.335 322.22 394.579 323.921V323.921Z" fill="#8F3535"/>
<path d="M235.032 464.589C235.783 464.35 235.533 463.622 234.691 463.622H219.282C189.945 460.515 169.449 464.68 182.366 465.659C195.282 466.637 181.455 466.433 172.021 470.006C162.587 473.579 242.179 474.478 249.405 470.006C256.051 465.886 224.631 467.923 235.032 464.589Z" fill="#8F3535"/>
<path d="M345.349 469.129L211.293 464.68L205.728 334.697L364.035 338.236L345.349 469.129Z" fill="#EE5858"/>
<path d="M253.15 466.637C253.007 466.638 252.869 466.584 252.763 466.487C252.658 466.39 252.593 466.257 252.581 466.114L241.839 335.562C241.829 335.412 241.878 335.264 241.976 335.149C242.074 335.035 242.212 334.962 242.362 334.948C242.512 334.941 242.658 334.991 242.772 335.089C242.886 335.186 242.959 335.323 242.977 335.471L253.776 466.023C253.782 466.098 253.774 466.173 253.751 466.244C253.728 466.316 253.691 466.382 253.642 466.439C253.594 466.496 253.534 466.543 253.467 466.577C253.4 466.611 253.328 466.631 253.253 466.637H253.15Z" fill="#8F3535"/>
<path d="M345.351 469.129L381.38 463.644L392.726 342.777L364.037 338.236L345.351 469.129Z" fill="#EE5858"/>
<path opacity="0.2" d="M345.351 469.129L381.38 463.644L392.726 342.777L364.037 338.236L345.351 469.129Z" fill="#191C1F"/>
<path d="M222.741 439.632L219.441 362.396C219.36 360.488 219.67 358.584 220.354 356.801C221.038 355.018 222.081 353.394 223.417 352.03C224.754 350.665 226.356 349.59 228.124 348.869C229.893 348.149 231.791 347.799 233.7 347.841L333.912 350.117C335.886 350.162 337.827 350.624 339.608 351.474C341.39 352.324 342.971 353.541 344.248 355.047C345.524 356.552 346.467 358.311 347.014 360.208C347.561 362.104 347.699 364.095 347.42 366.049L336.314 443.82C335.833 447.226 334.112 450.335 331.481 452.551C328.849 454.766 325.493 455.933 322.054 455.826L236.261 452.981C232.739 452.872 229.388 451.436 226.881 448.961C224.373 446.485 222.895 443.153 222.741 439.632V439.632Z" fill="#8F3535"/>
<path d="M233.576 371.546L249.076 372.035L248.951 376.03L239.244 375.722L239.152 378.704L248.154 378.988L248.029 382.812L239.027 382.516L238.914 386.215L248.894 386.533L248.757 390.767L232.973 390.266L233.576 371.546Z" fill="white"/>
<path d="M251.955 390.87L252.546 372.149L262.197 372.457C263.58 372.45 264.957 372.649 266.282 373.048C267.221 373.363 268.024 373.989 268.558 374.824C268.954 375.431 269.22 376.114 269.34 376.829C269.46 377.544 269.432 378.276 269.257 378.98C269.082 379.683 268.764 380.343 268.322 380.918C267.881 381.494 267.326 381.972 266.692 382.323C266.045 382.656 265.35 382.887 264.632 383.006C265.161 383.176 265.663 383.422 266.123 383.734C266.455 384.043 266.752 384.386 267.01 384.758C267.303 385.113 267.563 385.494 267.784 385.896L270.413 391.416L263.881 391.2L260.968 385.384C260.736 384.829 260.396 384.326 259.966 383.905C259.558 383.61 259.07 383.443 258.566 383.427H258.054L257.815 391.017L251.955 390.87ZM258.123 379.922L260.558 380.002C261.075 379.97 261.589 379.898 262.094 379.785C262.475 379.727 262.82 379.528 263.061 379.228C263.308 378.924 263.448 378.549 263.46 378.158C263.481 377.898 263.445 377.636 263.352 377.392C263.259 377.148 263.114 376.927 262.925 376.747C262.29 376.337 261.54 376.141 260.785 376.189L258.236 376.11L258.123 379.922Z" fill="white"/>
<path d="M272.301 391.472L272.893 372.752L282.531 373.059C283.915 373.051 285.292 373.251 286.617 373.651C287.558 373.962 288.362 374.589 288.893 375.426C289.47 376.338 289.742 377.411 289.667 378.487C289.67 379.396 289.427 380.288 288.965 381.069C288.502 381.851 287.836 382.492 287.038 382.926C286.39 383.257 285.695 383.487 284.978 383.608C285.504 383.778 286.002 384.024 286.458 384.337C286.798 384.636 287.1 384.976 287.357 385.35C287.647 385.705 287.906 386.086 288.13 386.488L290.759 391.996L284.227 391.791L281.314 385.976C281.081 385.421 280.741 384.918 280.312 384.496C279.906 384.189 279.411 384.021 278.901 384.018H278.4L278.15 391.62L272.301 391.472ZM278.457 380.525L280.904 380.593C281.421 380.573 281.936 380.505 282.44 380.388C282.819 380.332 283.161 380.132 283.396 379.83C283.651 379.532 283.792 379.153 283.795 378.761C283.819 378.501 283.785 378.239 283.694 377.995C283.604 377.751 283.459 377.53 283.271 377.349C282.636 376.929 281.879 376.733 281.12 376.792L278.583 376.712L278.457 380.525Z" fill="white"/>
<path d="M291.694 382.778C291.606 381.472 291.808 380.162 292.287 378.944C292.765 377.725 293.508 376.627 294.461 375.73C295.414 374.832 296.554 374.157 297.799 373.752C299.045 373.348 300.364 373.224 301.663 373.39C302.973 373.346 304.279 373.567 305.503 374.038C306.727 374.509 307.843 375.221 308.787 376.132C309.628 377.102 310.264 378.232 310.655 379.455C311.047 380.678 311.185 381.967 311.063 383.245C311.072 385.104 310.635 386.938 309.788 388.594C309.021 389.948 307.873 391.048 306.488 391.757C304.855 392.538 303.047 392.883 301.242 392.759C299.441 392.774 297.66 392.385 296.03 391.621C294.642 390.868 293.509 389.719 292.775 388.32C291.914 386.607 291.54 384.69 291.694 382.778V382.778ZM297.475 382.983C297.304 384.418 297.629 385.867 298.397 387.091C298.755 387.492 299.191 387.816 299.678 388.045C300.165 388.273 300.692 388.401 301.23 388.421C301.767 388.442 302.303 388.353 302.806 388.162C303.308 387.971 303.767 387.68 304.155 387.308C304.998 386.03 305.398 384.511 305.293 382.983C305.446 381.612 305.111 380.23 304.348 379.08C304.003 378.682 303.577 378.364 303.098 378.146C302.618 377.928 302.098 377.815 301.572 377.817C301.04 377.779 300.508 377.861 300.013 378.058C299.518 378.255 299.075 378.562 298.715 378.955C297.853 380.116 297.416 381.538 297.475 382.983V382.983Z" fill="white"/>
<path d="M313.987 392.85L314.579 374.118L324.217 374.425C325.601 374.423 326.977 374.623 328.303 375.017C329.239 375.336 330.041 375.962 330.579 376.792C331.154 377.706 331.424 378.777 331.353 379.854C331.358 380.764 331.116 381.658 330.653 382.442C330.191 383.226 329.524 383.869 328.724 384.303C328.073 384.625 327.38 384.851 326.664 384.975C327.191 385.148 327.689 385.397 328.144 385.714C328.484 386.014 328.786 386.354 329.043 386.727C329.336 387.081 329.595 387.462 329.816 387.865L332.445 393.384L325.913 393.18L323 387.353C322.768 386.801 322.427 386.302 321.998 385.885C321.59 385.58 321.097 385.409 320.587 385.396H320.086L319.836 392.998L313.987 392.85ZM320.143 381.891L322.59 381.97C323.108 381.951 323.622 381.882 324.126 381.766C324.503 381.705 324.844 381.506 325.082 381.208C325.351 380.891 325.493 380.485 325.481 380.07C325.505 379.812 325.471 379.552 325.38 379.31C325.289 379.067 325.145 378.849 324.957 378.67C324.322 378.25 323.565 378.053 322.806 378.113L320.269 378.033L320.143 381.891Z" fill="white"/>
<path d="M323.193 424.656C322.979 424.66 322.767 424.619 322.571 424.534C322.375 424.45 322.199 424.325 322.055 424.167L312.313 413.504L301.798 423.108C301.507 423.375 301.122 423.516 300.727 423.499C300.332 423.481 299.96 423.308 299.693 423.017L289.952 412.354L279.437 421.959C279.145 422.226 278.76 422.366 278.365 422.349C277.97 422.332 277.599 422.159 277.331 421.868L267.579 411.205L257.075 420.81C256.922 420.948 256.742 421.054 256.546 421.121C256.35 421.187 256.143 421.213 255.937 421.197C255.542 421.173 255.171 420.998 254.901 420.707L245.16 410.055L234.656 419.649C234.363 419.916 233.976 420.057 233.579 420.04C233.183 420.023 232.809 419.85 232.54 419.558C232.407 419.414 232.304 419.244 232.237 419.06C232.17 418.875 232.141 418.68 232.15 418.484C232.16 418.288 232.208 418.096 232.293 417.919C232.377 417.742 232.496 417.583 232.642 417.452L244.25 406.835C244.543 406.567 244.93 406.427 245.327 406.444C245.723 406.461 246.097 406.634 246.366 406.926L256.108 417.589L266.611 407.984C266.909 407.723 267.296 407.584 267.692 407.597C268.088 407.619 268.46 407.794 268.728 408.087L278.469 418.75L288.984 409.145C289.128 409.012 289.297 408.908 289.481 408.84C289.665 408.772 289.86 408.742 290.056 408.75C290.252 408.759 290.444 408.806 290.622 408.889C290.799 408.973 290.958 409.091 291.09 409.236L300.831 419.899L311.346 410.294C311.637 410.028 312.023 409.887 312.418 409.904C312.812 409.921 313.184 410.094 313.451 410.386L324.331 422.198C324.525 422.415 324.652 422.684 324.696 422.973C324.74 423.261 324.699 423.556 324.579 423.821C324.458 424.087 324.263 424.311 324.017 424.467C323.771 424.624 323.484 424.705 323.193 424.702V424.656Z" fill="white"/>
<path d="M143.105 471.895L135.981 468.492L129.631 437.573L133.079 433.783L143.105 471.895Z" fill="#EE5858"/>
<path d="M143.104 471.895L152.561 466.364L144.458 440.896L133.078 433.783L143.104 471.895Z" fill="#EE5858"/>
<path opacity="0.2" d="M143.104 471.895L152.561 466.364L144.458 440.896L133.078 433.783L143.104 471.895Z" fill="#191C1F"/>
<path d="M298.157 477.516H297.372C295.863 477.475 294.432 476.837 293.393 475.741C292.355 474.645 291.795 473.182 291.836 471.673C291.876 470.163 292.515 468.732 293.611 467.694C294.707 466.656 296.17 466.095 297.679 466.136C306.442 466.421 324.991 461.038 335.597 450.75C336.238 450.122 337.018 449.654 337.873 449.385C355.842 443.991 362.522 454.881 362.796 455.348L353.009 461.14C353.043 461.213 353.085 461.282 353.134 461.345C353.032 461.197 350.482 457.931 342.38 459.934C329.077 472.065 308.661 477.516 298.157 477.516Z" fill="#8F3535"/>
<path d="M297.463 485.073L276.74 483.776L275.113 445.562L302.96 446.597L297.463 485.073Z" fill="#EE5858"/>
<path d="M297.464 485.072L302.312 480.247L305.316 456.429L302.96 446.597L297.464 485.072Z" fill="#EE5858"/>
<path opacity="0.2" d="M297.464 485.072L302.312 480.247L305.316 456.429L302.96 446.597L297.464 485.072Z" fill="#191C1F"/>
<path d="M417.545 470.609C416.801 470.608 416.078 470.364 415.486 469.914C403.65 460.924 387.661 444.958 381.528 429.561C381.436 429.338 381.371 429.105 381.334 428.867C378.341 411.068 375.485 373.617 375.36 372.035C375.326 371.587 375.381 371.136 375.522 370.709C375.662 370.282 375.885 369.887 376.179 369.546C376.771 368.858 377.612 368.433 378.518 368.365C379.423 368.297 380.318 368.592 381.007 369.184C381.695 369.776 382.12 370.618 382.188 371.523C382.188 371.899 385.112 409.714 388.026 427.365C394.148 442.341 410.786 457.715 419.639 464.475C420.209 464.907 420.629 465.508 420.839 466.192C421.049 466.876 421.039 467.609 420.81 468.287C420.581 468.965 420.145 469.554 419.563 469.97C418.982 470.387 418.284 470.61 417.568 470.609H417.545Z" fill="#8F3535"/>
<path d="M433.328 472.327C430.688 472.327 427.695 471.132 424.429 468.776C423.695 468.245 423.203 467.445 423.06 466.55C422.917 465.656 423.135 464.742 423.666 464.008C424.197 463.275 424.998 462.783 425.892 462.64C426.787 462.497 427.701 462.715 428.434 463.246C431.257 465.283 432.793 465.522 433.328 465.522C434.233 465.522 435.102 465.881 435.742 466.522C436.382 467.162 436.742 468.03 436.742 468.936C436.742 469.841 436.382 470.71 435.742 471.35C435.102 471.99 434.233 472.35 433.328 472.35V472.327Z" fill="#8F3535"/>
<path d="M425.386 468.674C429.039 457.829 444.015 459.968 449.182 461.584C453.595 462.865 457.828 464.701 461.78 467.047C464.568 468.867 464.613 471.929 460.892 473.67C456.34 475.809 444.778 473.909 444.778 473.909C450.741 476.515 444.778 480.737 434.297 476.594C430.894 475.252 424.1 472.657 425.386 468.674Z" fill="#EE5858"/>
<path d="M389.039 376.678C387.685 385.896 380.049 392.69 373.835 391.78C367.622 390.869 367.371 382.676 368.726 373.412C370.08 364.149 372.538 357.48 378.751 358.391C384.965 359.301 390.393 367.495 389.039 376.678Z" fill="#8F3535"/>
<path d="M238.845 339.921C239.361 339.921 239.778 339.503 239.778 338.988C239.778 338.472 239.361 338.055 238.845 338.055C238.33 338.055 237.912 338.472 237.912 338.988C237.912 339.503 238.33 339.921 238.845 339.921Z" fill="#8F3535"/>
<path d="M248.324 345.702C248.324 345.886 248.27 346.067 248.167 346.22C248.065 346.374 247.919 346.493 247.748 346.564C247.578 346.634 247.39 346.653 247.209 346.617C247.028 346.581 246.862 346.492 246.731 346.362C246.601 346.231 246.512 346.065 246.476 345.884C246.44 345.703 246.458 345.515 246.529 345.345C246.6 345.174 246.719 345.028 246.873 344.926C247.026 344.823 247.207 344.769 247.391 344.769C247.639 344.769 247.876 344.867 248.051 345.042C248.226 345.217 248.324 345.454 248.324 345.702Z" fill="#8F3535"/>
<path d="M249.371 455.974C249.371 456.159 249.316 456.339 249.214 456.493C249.111 456.646 248.966 456.766 248.795 456.836C248.625 456.907 248.437 456.925 248.256 456.889C248.075 456.853 247.909 456.765 247.778 456.634C247.648 456.504 247.559 456.337 247.523 456.156C247.487 455.975 247.505 455.788 247.576 455.617C247.647 455.447 247.766 455.301 247.92 455.198C248.073 455.096 248.253 455.041 248.438 455.041C248.686 455.041 248.923 455.139 249.098 455.314C249.273 455.489 249.371 455.727 249.371 455.974V455.974Z" fill="#8F3535"/>
<path d="M257.918 462.7C257.918 462.884 257.863 463.065 257.76 463.218C257.658 463.372 257.512 463.491 257.342 463.562C257.171 463.633 256.983 463.651 256.802 463.615C256.621 463.579 256.455 463.49 256.325 463.36C256.194 463.229 256.105 463.063 256.069 462.882C256.033 462.701 256.052 462.513 256.122 462.343C256.193 462.172 256.313 462.026 256.466 461.924C256.619 461.821 256.8 461.767 256.984 461.767C257.232 461.767 257.469 461.865 257.644 462.04C257.819 462.215 257.918 462.452 257.918 462.7Z" fill="#8F3535"/>
<path d="M93.8964 473.886C92.2581 473.809 90.6579 473.366 89.2141 472.588C87.7703 471.81 86.5197 470.717 85.5548 469.391C85.5075 469.33 85.4731 469.26 85.4538 469.185C85.4344 469.11 85.4304 469.032 85.4421 468.956C85.4538 468.88 85.4809 468.807 85.5218 468.741C85.5626 468.676 85.6164 468.619 85.6798 468.575C85.7432 468.531 85.8149 468.5 85.8905 468.485C85.9662 468.469 86.0442 468.469 86.1198 468.485C86.1954 468.501 86.267 468.532 86.3303 468.576C86.3936 468.62 86.4473 468.677 86.488 468.742C88.6161 471.815 93.316 473.442 95.3644 472.475C95.5696 472.388 95.7524 472.256 95.8993 472.088C94.8642 471.632 93.9573 470.929 93.2587 470.04C92.56 469.151 92.0912 468.103 91.8935 466.99C91.6318 465.544 91.4269 463.576 92.6104 463.325C94.2492 462.961 96.3886 466.91 97.1624 469.903C97.3026 470.398 97.3527 470.915 97.3104 471.428C97.9668 471.623 98.6571 471.678 99.336 471.587C99.6419 471.564 99.9396 471.477 100.21 471.332C100.48 471.187 100.718 470.987 100.906 470.745C100.158 470.18 99.5363 469.463 99.0833 468.641C98.6303 467.82 98.3558 466.912 98.2777 465.977C97.8452 462.859 98.1753 462.324 98.5167 462.051C98.6273 461.966 98.7593 461.914 98.898 461.899C99.0366 461.885 99.1765 461.91 99.3019 461.971C100.52 462.483 101.988 466.899 102.272 469.402C102.306 469.663 102.306 469.927 102.272 470.187C102.763 470.376 103.283 470.476 103.808 470.483C104.773 470.521 105.728 470.271 106.551 469.766C106.392 469.664 106.244 469.55 106.096 469.436C104.958 468.424 104.434 466.808 104.639 464.509C104.798 462.722 105.197 461.744 105.914 461.436C106.145 461.343 106.398 461.32 106.643 461.368C106.887 461.417 107.112 461.535 107.291 461.709C108.059 462.558 108.633 463.563 108.973 464.656C109.313 465.749 109.411 466.902 109.259 468.037C109.161 468.509 108.963 468.955 108.679 469.345C110.773 469.709 113.709 469.118 116.247 468.492C116.321 468.474 116.399 468.471 116.475 468.483C116.551 468.495 116.624 468.522 116.689 468.562C116.755 468.602 116.812 468.655 116.857 468.717C116.902 468.779 116.934 468.85 116.952 468.924C116.97 468.999 116.973 469.077 116.961 469.152C116.949 469.228 116.922 469.301 116.882 469.367C116.842 469.432 116.789 469.489 116.727 469.534C116.665 469.579 116.595 469.612 116.52 469.63C113.436 470.392 110.113 471.018 107.769 470.335C106.624 471.205 105.223 471.67 103.786 471.655C103.148 471.647 102.516 471.528 101.919 471.303C101.655 471.712 101.299 472.055 100.881 472.306C100.463 472.556 99.9926 472.708 99.5067 472.748C98.6513 472.858 97.7823 472.784 96.9576 472.532C96.6921 472.979 96.2945 473.333 95.8196 473.545C95.2092 473.791 94.5542 473.907 93.8964 473.886V473.886ZM92.9177 464.463C92.7603 465.237 92.7915 466.037 93.0087 466.796C93.1693 467.706 93.5469 468.564 94.1095 469.297C94.6721 470.03 95.4031 470.617 96.2407 471.007C96.2247 470.737 96.1789 470.47 96.1041 470.21C95.2165 466.956 93.5095 464.714 92.9177 464.463V464.463ZM99.2564 463.473C99.2638 464.258 99.3284 465.042 99.4498 465.818C99.5753 467.205 100.188 468.503 101.18 469.482C100.9 467.381 100.248 465.346 99.2564 463.473V463.473ZM106.414 462.483C106.414 462.483 105.982 462.699 105.823 464.6C105.663 466.5 105.993 467.809 106.881 468.571C107.091 468.742 107.32 468.887 107.564 469.004C107.863 468.684 108.075 468.292 108.178 467.866C108.381 466.075 107.897 464.273 106.824 462.825C106.585 462.529 106.449 462.483 106.414 462.483V462.483Z" fill="#8F3535"/>
<path d="M260.454 482.489L263.538 477.141L260.454 471.792H257.153L259.02 477.141L257.153 482.489H260.454Z" fill="#8F3535"/>
<path d="M257.369 479.929C256.989 479.953 256.607 479.9 256.249 479.771C255.89 479.642 255.561 479.441 255.283 479.18C255.005 478.919 254.784 478.604 254.632 478.255C254.481 477.905 254.403 477.528 254.403 477.147C254.403 476.766 254.481 476.389 254.632 476.039C254.784 475.689 255.005 475.374 255.283 475.113C255.561 474.853 255.89 474.652 256.249 474.523C256.607 474.394 256.989 474.34 257.369 474.364L252.134 473.317L250.734 477.551L253.079 481.124L257.369 479.929Z" fill="#8F3535"/>
<path d="M257.826 471.792H251.647L248.563 477.141L251.647 482.489H257.826L260.91 477.141L257.826 471.792ZM254.742 479.929C254.19 479.931 253.65 479.769 253.19 479.464C252.73 479.159 252.371 478.725 252.158 478.215C251.946 477.706 251.889 477.145 251.995 476.604C252.101 476.062 252.366 475.564 252.755 475.173C253.145 474.782 253.642 474.515 254.183 474.407C254.724 474.298 255.285 474.353 255.795 474.564C256.305 474.774 256.741 475.132 257.048 475.59C257.355 476.049 257.519 476.589 257.519 477.141C257.519 477.878 257.227 478.586 256.706 479.108C256.186 479.631 255.48 479.926 254.742 479.929V479.929Z" fill="#EE5858"/>
<path d="M475.559 471.428L473.271 467.456L475.559 463.484H478.006L476.629 467.456L478.006 471.428H475.559Z" fill="#EE5858"/>
<path d="M477.846 469.528C478.13 469.549 478.415 469.511 478.684 469.417C478.953 469.323 479.2 469.174 479.408 468.98C479.617 468.786 479.784 468.551 479.898 468.29C480.011 468.029 480.07 467.747 480.07 467.462C480.07 467.177 480.011 466.896 479.898 466.634C479.784 466.373 479.617 466.138 479.408 465.945C479.2 465.751 478.953 465.602 478.684 465.508C478.415 465.414 478.13 465.376 477.846 465.397L481.738 464.623L482.773 467.764L481.043 470.415L477.846 469.528Z" fill="#EE5858"/>
<path d="M477.517 463.484H482.069L484.345 467.456L482.069 471.428H477.517L475.241 467.456L477.517 463.484ZM479.793 469.527C480.203 469.529 480.604 469.41 480.946 469.184C481.289 468.957 481.556 468.635 481.714 468.257C481.873 467.878 481.915 467.461 481.837 467.059C481.758 466.656 481.562 466.286 481.273 465.996C480.983 465.705 480.614 465.506 480.212 465.426C479.81 465.345 479.393 465.385 479.014 465.541C478.635 465.698 478.311 465.963 478.083 466.304C477.855 466.645 477.733 467.046 477.733 467.456C477.731 467.728 477.784 467.998 477.888 468.25C477.991 468.502 478.144 468.731 478.336 468.924C478.529 469.117 478.758 469.269 479.01 469.373C479.262 469.476 479.532 469.529 479.804 469.527H479.793Z" fill="#8F3535"/>
<path d="M390.334 476.709H395.478C396.122 476.706 396.738 476.448 397.193 475.991C397.647 475.535 397.902 474.917 397.902 474.273V474.273C397.902 473.629 397.647 473.012 397.193 472.555C396.738 472.099 396.122 471.841 395.478 471.838H390.334C389.688 471.838 389.069 472.094 388.612 472.551C388.156 473.008 387.899 473.627 387.899 474.273V474.273C387.899 474.919 388.156 475.539 388.612 475.995C389.069 476.452 389.688 476.709 390.334 476.709V476.709Z" fill="#8F3535"/>
<path d="M382.061 472.111C382.539 471.242 383.26 470.533 384.136 470.07C385.011 469.606 386.003 469.409 386.99 469.503C387.976 469.597 388.913 469.978 389.686 470.598C390.459 471.218 391.033 472.051 391.338 472.993C391.643 473.936 391.665 474.947 391.403 475.902C391.14 476.858 390.603 477.715 389.859 478.369C389.115 479.023 388.195 479.445 387.214 479.582C386.233 479.72 385.233 479.567 384.337 479.143C383.107 478.509 382.177 477.413 381.75 476.096C381.324 474.778 381.436 473.346 382.061 472.111Z" fill="#EE5858"/>
<path d="M383.448 479.142L384.858 479.807L389.759 469.41L388.349 468.745L383.448 479.142Z" fill="#8F3535"/>
</svg>
